<?xml version="1.0" encoding="UTF-8"?>
<svg width="1600" height="320" viewBox="0 0 1600 320" fill="none" xmlns="http://www.w3.org/2000/svg" role="img" aria-labelledby="banner-title banner-desc">
  <title id="banner-title">Douglas Menezes - Backend Developer</title>
  <desc id="banner-desc">Technology banner inspired by motherboard circuits and distributed backend architecture, with subtle animated data pulses.</desc>

  <style>
    .label { font-family: Inter, Segoe UI, sans-serif; fill: #A7B6C8; font-size: 11px; letter-spacing: 0.08em; }
    .mono { font-family: SFMono-Regular, Consolas, monospace; fill: #8FA2B8; font-size: 11px; }
    .card-title { font-family: Inter, Segoe UI, sans-serif; fill: #E7F3FF; font-size: 13px; font-weight: 700; }
    .small-title { font-family: Inter, Segoe UI, sans-serif; fill: #D8E8F8; font-size: 11px; font-weight: 700; letter-spacing: 0.06em; }
    .trace {
    stroke-dasharray: 4 8;
    animation: traceFlow 7s linear infinite;
    }
    .trace-slow {
    stroke-dasharray: 2 10;
    animation: traceFlow 12s linear infinite;
    }
    .packet {
    filter: url(#packetGlow);
    opacity: 0.85;
    }
    .blink {
    animation: blink 3.2s ease-in-out infinite;
    }
    .blink-alt {
    animation: blink 4.4s ease-in-out infinite;
    }
    .node-glow {
    animation: nodeGlow 5s ease-in-out infinite;
    }
    .center-code {
    animation: centerPulse 6s ease-in-out infinite;
    transform-origin: center;
    transform-box: fill-box;
    }
    @keyframes traceFlow {
    from { stroke-dashoffset: 0; }
    to { stroke-dashoffset: -120; }
    }
    @keyframes blink {
    0%, 100% { opacity: 0.35; }
    50% { opacity: 1; }
    }
    @keyframes nodeGlow {
    0%, 100% { filter: drop-shadow(0 0 0 rgba(56, 189, 248, 0)); }
    50% { filter: drop-shadow(0 0 8px rgba(56, 189, 248, 0.45)); }
    }
    @keyframes centerPulse {
    0%, 100% { transform: scale(1); }
    50% { transform: scale(1.035); }
    }
    @media (prefers-reduced-motion: reduce) {
    .trace,
    .trace-slow,
    .blink,
    .blink-alt,
    .node-glow,
    .center-code {
    animation: none !important;
    }
    animateMotion {
    display: none;
    }
    }
  </style>

  <defs>
    <linearGradient id="bg" x1="0" y1="0" x2="1600" y2="320" gradientUnits="userSpaceOnUse">
      <stop stop-color="#07101B" />
      <stop offset="0.52" stop-color="#0A141E" />
      <stop offset="1" stop-color="#07101A" />
    </linearGradient>
    <radialGradient id="centerLight" cx="0" cy="0" r="1" gradientUnits="userSpaceOnUse" gradientTransform="translate(800 150) scale(340 150)">
      <stop stop-color="#1F6D8F" stop-opacity="0.22" />
      <stop offset="1" stop-color="#1F6D8F" stop-opacity="0" />
    </radialGradient>
    <linearGradient id="blueStroke" x1="0" y1="0" x2="1" y2="0">
      <stop stop-color="#2DD4FF" stop-opacity="0.25" />
      <stop offset="0.5" stop-color="#60A5FA" stop-opacity="0.95" />
      <stop offset="1" stop-color="#2DD4FF" stop-opacity="0.25" />
    </linearGradient>
    <linearGradient id="orangeStroke" x1="0" y1="0" x2="1" y2="0">
      <stop stop-color="#F97316" stop-opacity="0.18" />
      <stop offset="0.5" stop-color="#FB923C" stop-opacity="0.9" />
      <stop offset="1" stop-color="#F97316" stop-opacity="0.18" />
    </linearGradient>
    <pattern id="dotGrid" width="12" height="12" patternUnits="userSpaceOnUse">
      <circle cx="1" cy="1" r="1" fill="#8BA3B7" fill-opacity="0.16" />
    </pattern>
    <filter id="softGlow" x="-40%" y="-40%" width="180%" height="180%">
      <feGaussianBlur stdDeviation="4" result="blur" />
      <feMerge>
        <feMergeNode in="blur" />
        <feMergeNode in="SourceGraphic" />
      </feMerge>
    </filter>
    <filter id="packetGlow" x="-80%" y="-80%" width="260%" height="260%">
      <feGaussianBlur stdDeviation="2.4" result="blur" />
      <feColorMatrix in="blur" type="matrix" values="0 0 0 0 0.16 0 0 0 0 0.74 0 0 0 0 1 0 0 0 0.85 0" result="colored" />
      <feMerge>
        <feMergeNode in="colored" />
        <feMergeNode in="SourceGraphic" />
      </feMerge>
    </filter>

    <path id="p-api-auth" d="M357 119H396V73H421" />
    <path id="p-api-user" d="M357 136H421" />
    <path id="p-api-notify" d="M357 153H396V207H421" />
    <path id="p-card-broker" d="M1180 74H1234V128H1260" />
    <path id="p-account-broker" d="M1180 136H1260" />
    <path id="p-credit-broker" d="M1180 204H1234V156H1260" />
    <path id="p-broker-data" d="M1340 141H1425" />
  </defs>

  <rect width="1600" height="320" rx="14" fill="url(#bg)" />
  <rect width="1600" height="320" rx="14" fill="url(#centerLight)" />
  <rect x="0.5" y="0.5" width="1599" height="319" rx="13.5" stroke="#7DD3FC" stroke-opacity="0.18" />
  <rect x="20" y="20" width="1560" height="240" rx="4" stroke="#516678" stroke-opacity="0.38" />
  <rect x="20" y="20" width="1560" height="240" fill="url(#dotGrid)" opacity="0.7" />

  <g id="ambient-traces" stroke-linecap="round" stroke-linejoin="round">
    <path class="trace-slow" d="M1160 36H1240V63H1300V99" stroke="#F97316" stroke-opacity="0.35" />
    <path class="trace-slow" d="M1355 205H1288V236H1190" stroke="#F97316" stroke-opacity="0.35" />
    <path class="trace-slow" d="M116 245H262V272H760" stroke="#38BDF8" stroke-opacity="0.22" />
    <path class="trace-slow" d="M1380 32H1510V49H1560" stroke="#38BDF8" stroke-opacity="0.28" />
    <circle cx="1560" cy="49" r="2" fill="#7DD3FC" fill-opacity="0.8" class="blink" />
    <circle cx="1300" cy="99" r="2.3" fill="#FB923C" fill-opacity="0.8" class="blink-alt" />
    <circle cx="1190" cy="236" r="2.3" fill="#FB923C" fill-opacity="0.7" class="blink" />
  </g>

  <g id="clients">
    <rect x="38" y="48" width="106" height="188" rx="7" fill="#0A141F" stroke="#60798D" stroke-opacity="0.35" />
    <text x="58" y="61" class="small-title" fill="#8FB9FF">CLIENTS</text>
    <rect x="58" y="78" width="62" height="118" rx="5" fill="#0D1724" stroke="#446275" stroke-opacity="0.4" />
    <circle cx="89" cy="100" r="10" stroke="#B7CADB" stroke-width="1.5" />
    <path d="M79 100H99M89 90C94 96 94 104 89 110M89 90C84 96 84 104 89 110" stroke="#B7CADB" stroke-width="1" />
    <text x="78" y="126" class="mono">Web</text>
    <path d="M85 142H93V160H85V142Z" stroke="#B7CADB" stroke-width="1.4" rx="2" />
    <circle cx="89" cy="157" r="0.8" fill="#B7CADB" />
    <text x="73" y="174" class="mono">Mobile</text>
    <path d="M78 190H100M82 194H96M86 198H92" stroke="#B7CADB" stroke-width="1.2" stroke-linecap="round" />
    <text x="66" y="218" class="mono">Third Party</text>
  </g>

  <g id="left-flow" stroke-linecap="round" stroke-linejoin="round">
    <path class="trace" d="M144 118H223" stroke="url(#blueStroke)" stroke-width="1.5" />
    <path class="trace" d="M144 154H223" stroke="url(#blueStroke)" stroke-width="1.5" />
    <path d="M223 98H357V174H223Z" fill="#07131F" stroke="#38BDF8" stroke-opacity="0.55" />
    <rect x="229" y="104" width="122" height="64" rx="6" fill="#0B1C2A" stroke="#38BDF8" stroke-opacity="0.55" />
    <path d="M281 94L290 90L299 94V105C299 112 295 117 290 119C285 117 281 112 281 105V94Z" fill="#0F2435" stroke="#38BDF8" stroke-width="1.4" class="node-glow" />
    <path d="M287 103L290 106L295 99" stroke="#7DD3FC" stroke-width="1.2" stroke-linecap="round" stroke-linejoin="round" />
    <text x="261" y="141" fill="#7DD3FC" font-family="Inter, Segoe UI, sans-serif" font-size="13" font-weight="700">API GATEWAY</text>
    <path class="trace" d="M357 119H396V73H421" stroke="url(#blueStroke)" stroke-width="1.4" />
    <path class="trace" d="M357 136H421" stroke="url(#blueStroke)" stroke-width="1.4" />
    <path class="trace" d="M357 153H396V207H421" stroke="url(#blueStroke)" stroke-width="1.4" />
  </g>

  <g id="left-services">
    <g transform="translate(421 57)">
      <rect width="130" height="42" rx="6" fill="#0B1824" stroke="#5FBFEF" stroke-opacity="0.46" />
      <path d="M15 11L23 8L31 11V23C31 28 27 31 23 32C19 31 15 28 15 23V11Z" stroke="#7DD3FC" stroke-width="1.2" />
      <text x="43" y="26" class="card-title">AUTH SERVICE</text>
    </g>
    <g transform="translate(421 119)">
      <rect width="130" height="42" rx="6" fill="#0B1824" stroke="#5FBFEF" stroke-opacity="0.46" />
      <rect x="15" y="12" width="14" height="18" rx="2" stroke="#7DD3FC" stroke-width="1.2" />
      <path d="M18 18H28M18 23H27" stroke="#7DD3FC" stroke-width="1" />
      <text x="43" y="26" class="card-title">USER SERVICE</text>
    </g>
    <g transform="translate(421 181)">
      <rect width="130" height="42" rx="6" fill="#0B1824" stroke="#5FBFEF" stroke-opacity="0.46" />
      <rect x="14" y="13" width="17" height="13" rx="2" stroke="#7DD3FC" stroke-width="1.2" />
      <path d="M15 14L22.5 21L30 14" stroke="#7DD3FC" stroke-width="1" />
      <text x="43" y="22" class="card-title">NOTIFICATION</text>
      <text x="43" y="35" class="mono">SERVICE</text>
    </g>
  </g>

  <g id="center-title">
    <g transform="translate(770 40)">
      <g class="center-code">
        <circle cx="30" cy="30" r="22" fill="#092033" stroke="#38BDF8" stroke-width="2" filter="url(#softGlow)" />
        <path d="M22 31L16 26L22 21M38 21L44 26L38 31M27 36L34 18" stroke="#65D7FF" stroke-width="2.2" stroke-linecap="round" stroke-linejoin="round" />
      </g>
    </g>
    <text x="800" y="134" text-anchor="middle" fill="#F2F7FB" font-family="Inter, Segoe UI, sans-serif" font-size="45" font-weight="800">Douglas Menezes</text>
    <text x="800" y="166" text-anchor="middle" fill="#38BDF8" font-family="Inter, Segoe UI, sans-serif" font-size="24" font-weight="800">Backend Developer</text>
    <text x="800" y="192" text-anchor="middle" fill="#E5EEF8" font-family="Inter, Segoe UI, sans-serif" font-size="16" font-weight="600">Building reliable backend systems,</text>
    <text x="800" y="214" text-anchor="middle" fill="#E5EEF8" font-family="Inter, Segoe UI, sans-serif" font-size="16" font-weight="600">one service at a time.</text>
    <text x="800" y="240" text-anchor="middle" class="mono">Java    Spring Boot    Microservices    Cloud    Clean Architecture</text>
  </g>

  <g id="right-services" stroke-linecap="round" stroke-linejoin="round">
    <path class="trace" d="M1042 119H1002V73H1180" stroke="url(#blueStroke)" stroke-width="1.4" />
    <path class="trace" d="M1042 136H1180" stroke="url(#blueStroke)" stroke-width="1.4" />
    <path class="trace" d="M1042 153H1002V207H1180" stroke="url(#blueStroke)" stroke-width="1.4" />
    <g transform="translate(1028 57)">
      <rect width="132" height="42" rx="6" fill="#0B1824" stroke="#5FBFEF" stroke-opacity="0.46" />
      <rect x="15" y="12" width="14" height="18" rx="2" stroke="#7DD3FC" stroke-width="1.2" />
      <path d="M18 17H27M18 22H25" stroke="#7DD3FC" stroke-width="1" />
      <text x="43" y="26" class="card-title">CARD SERVICE</text>
    </g>
    <g transform="translate(1028 119)">
      <rect width="132" height="42" rx="6" fill="#0B1824" stroke="#5FBFEF" stroke-opacity="0.46" />
      <path d="M23 12C27 12 30 15 30 19V30H16V19C16 15 19 12 23 12Z" stroke="#7DD3FC" stroke-width="1.2" />
      <path d="M20 20H26M19 25H27" stroke="#7DD3FC" stroke-width="1" />
      <text x="43" y="26" class="card-title">ACCOUNT SERVICE</text>
    </g>
    <g transform="translate(1028 181)">
      <rect width="132" height="42" rx="6" fill="#0B1824" stroke="#5FBFEF" stroke-opacity="0.46" />
      <path d="M15 17L24 12L33 17V28L24 33L15 28V17Z" stroke="#7DD3FC" stroke-width="1.2" />
      <path d="M15 17L24 22L33 17M24 22V33" stroke="#7DD3FC" stroke-width="1" />
      <text x="43" y="26" class="card-title">CREDIT SERVICE</text>
    </g>
    <path class="trace" d="M1180 74H1234V128H1260" stroke="url(#blueStroke)" stroke-width="1.4" />
    <path class="trace" d="M1180 136H1260" stroke="url(#blueStroke)" stroke-width="1.4" />
    <path class="trace" d="M1180 204H1234V156H1260" stroke="url(#blueStroke)" stroke-width="1.4" />
  </g>

  <g id="broker">
    <rect x="1260" y="104" width="86" height="72" rx="7" fill="#131719" stroke="#F97316" stroke-opacity="0.55" />
    <circle cx="1303" cy="128" r="17" fill="#1C1714" stroke="#F97316" stroke-width="1.8" class="node-glow" />
    <path d="M1296 119V134H1311V128H1304V119H1296Z" fill="#FB923C" />
    <path d="M1299 122V126M1306 122V126" stroke="#0B1220" stroke-width="1.5" />
    <text x="1303" y="158" text-anchor="middle" fill="#E9D6C9" font-family="Inter, Segoe UI, sans-serif" font-size="10" font-weight="800">MESSAGE BROKER</text>
    <path class="trace" d="M1346 141H1425" stroke="url(#orangeStroke)" stroke-width="1.6" />
    <path class="trace-slow" d="M1346 117H1382V73H1425" stroke="url(#orangeStroke)" stroke-width="1.2" />
    <path class="trace-slow" d="M1346 165H1382V209H1425" stroke="url(#orangeStroke)" stroke-width="1.2" />
  </g>

  <g id="data-layer">
    <rect x="1425" y="48" width="130" height="188" rx="7" fill="#0A141F" stroke="#60798D" stroke-opacity="0.35" />
    <text x="1454" y="62" class="small-title">DATA LAYER</text>
    <g transform="translate(1458 90)">
      <path d="M16 7C24 7 29 10 29 15C29 19 26 22 21 23L20 33H12L11 23C6 22 3 19 3 15C3 10 8 7 16 7Z" stroke="#60A5FA" stroke-width="1.5" />
      <path d="M10 15V26M16 15V33M22 15V26" stroke="#60A5FA" stroke-width="1.3" stroke-linecap="round" />
      <text x="44" y="23" class="mono" fill="#C7D7E5">PostgreSQL</text>
    </g>
    <g transform="translate(1458 142)">
      <path d="M16 7L30 14L16 21L2 14L16 7Z" fill="#EF4444" fill-opacity="0.85" />
      <path d="M2 20L16 27L30 20M2 26L16 33L30 26" stroke="#EF4444" stroke-width="2" stroke-linejoin="round" />
      <text x="44" y="23" class="mono" fill="#C7D7E5">Redis</text>
    </g>
    <g transform="translate(1458 194)">
      <ellipse cx="16" cy="10" rx="12" ry="5" stroke="#D8E8F8" stroke-width="1.4" />
      <path d="M4 10V29C4 32 9 35 16 35C23 35 28 32 28 29V10" stroke="#D8E8F8" stroke-width="1.4" />
      <path d="M4 21C4 24 9 27 16 27C23 27 28 24 28 21" stroke="#D8E8F8" stroke-width="1.1" />
      <text x="44" y="23" class="mono" fill="#C7D7E5">S3 / Storage</text>
    </g>
  </g>

  <g id="packets">
    <circle r="3" fill="#7DD3FC" class="packet">
      <animateMotion dur="4.8s" repeatCount="indefinite" begin="0.1s"><mpath href="#p-api-auth" /></animateMotion>
    </circle>
    <circle r="2.6" fill="#7DD3FC" class="packet">
      <animateMotion dur="4.2s" repeatCount="indefinite" begin="1.2s"><mpath href="#p-api-user" /></animateMotion>
    </circle>
    <circle r="3" fill="#7DD3FC" class="packet">
      <animateMotion dur="5.4s" repeatCount="indefinite" begin="0.7s"><mpath href="#p-api-notify" /></animateMotion>
    </circle>
    <circle r="3" fill="#7DD3FC" class="packet">
      <animateMotion dur="5.1s" repeatCount="indefinite" begin="0.4s"><mpath href="#p-card-broker" /></animateMotion>
    </circle>
    <circle r="2.6" fill="#7DD3FC" class="packet">
      <animateMotion dur="4.6s" repeatCount="indefinite" begin="1.5s"><mpath href="#p-account-broker" /></animateMotion>
    </circle>
    <circle r="3" fill="#7DD3FC" class="packet">
      <animateMotion dur="5.7s" repeatCount="indefinite" begin="0.9s"><mpath href="#p-credit-broker" /></animateMotion>
    </circle>
    <circle r="3" fill="#FB923C" class="packet">
      <animateMotion dur="3.8s" repeatCount="indefinite" begin="0.2s"><mpath href="#p-broker-data" /></animateMotion>
    </circle>
  </g>

  <g id="footer">
    <path d="M0 260H770C780 260 784 276 800 276C816 276 820 260 830 260H1600" stroke="#516678" stroke-opacity="0.45" />
    <circle cx="800" cy="276" r="16" fill="#07101A" stroke="#516678" stroke-opacity="0.55" />
    <path d="M792 274C792 269 796 265 801 265C806 265 810 269 810 274C810 278 808 281 804 282V287H798V282C794 281 792 278 792 274Z" fill="#F2F7FB" />
    <g transform="translate(58 282)">
      <circle cx="0" cy="0" r="3" fill="#38BDF8" class="blink" />
      <text x="16" y="4" class="mono">Docker</text>
    </g>
    <g transform="translate(232 282)">
      <rect x="-5" y="-7" width="10" height="12" rx="2" fill="#F97316" />
      <text x="16" y="4" class="mono">RabbitMQ</text>
    </g>
    <g transform="translate(384 282)">
      <path d="M0 -8L8 -4V5L0 9L-8 5V-4L0 -8Z" fill="#65A30D" />
      <text x="17" y="4" class="mono">Spring Boot</text>
    </g>
    <g transform="translate(545 282)">
      <circle cx="-5" cy="-5" r="3" stroke="#60A5FA" stroke-width="1.5" />
      <circle cx="5" cy="0" r="3" stroke="#60A5FA" stroke-width="1.5" />
      <circle cx="-5" cy="6" r="3" stroke="#60A5FA" stroke-width="1.5" />
      <path d="M-2 -3L2 -1M-2 5L2 1" stroke="#60A5FA" />
      <text x="18" y="4" class="mono">GitHub Actions</text>
    </g>
    <text x="1000" y="286" class="label">OBSERVABILITY</text>
    <g transform="translate(1120 282)">
      <circle cx="0" cy="0" r="7" fill="#F97316" fill-opacity="0.88" />
      <text x="18" y="4" class="mono">Prometheus</text>
    </g>
    <g transform="translate(1264 282)">
      <path d="M0 -8L7 -4V4L0 8L-7 4V-4L0 -8Z" fill="#F97316" />
      <circle cx="0" cy="0" r="3" fill="#07101A" />
      <text x="18" y="4" class="mono">Grafana</text>
    </g>
    <g transform="translate(1390 282)">
      <path d="M-5 8L-1 -8H3L7 8" stroke="#F97316" stroke-width="2" />
      <text x="18" y="4" class="mono">Loki</text>
    </g>
  </g>
</svg>
