<svg viewBox="0 0 1500 680" xmlns="http://www.w3.org/2000/svg" xmlns:xlink="http://www.w3.org/1999/xlink">
    <defs>
        <!-- Gradients -->
        <radialGradient id="bgGlow" cx="50%" cy="40%" r="60%">
            <stop offset="0%" stop-color="#131c2e"/>
            <stop offset="100%" stop-color="#0a0f1a"/>
        </radialGradient>
        <linearGradient id="blueGlow" x1="0%" y1="0%" x2="100%" y2="0%">
            <stop offset="0%" stop-color="#1e90ff" stop-opacity="0"/>
            <stop offset="50%" stop-color="#1e90ff" stop-opacity="1"/>
            <stop offset="100%" stop-color="#1e90ff" stop-opacity="0"/>
        </linearGradient>
        <linearGradient id="orangeGlow" x1="0%" y1="0%" x2="100%" y2="0%">
            <stop offset="0%" stop-color="#e8720c" stop-opacity="0"/>
            <stop offset="50%" stop-color="#e8720c" stop-opacity="1"/>
            <stop offset="100%" stop-color="#e8720c" stop-opacity="0"/>
        </linearGradient>
        <linearGradient id="blueGlowV" x1="0%" y1="0%" x2="0%" y2="100%">
            <stop offset="0%" stop-color="#1e90ff" stop-opacity="0"/>
            <stop offset="50%" stop-color="#1e90ff" stop-opacity="1"/>
            <stop offset="100%" stop-color="#1e90ff" stop-opacity="0"/>
        </linearGradient>
        <linearGradient id="orangeGlowV" x1="0%" y1="0%" x2="0%" y2="100%">
            <stop offset="0%" stop-color="#e8720c" stop-opacity="0"/>
            <stop offset="50%" stop-color="#e8720c" stop-opacity="1"/>
            <stop offset="100%" stop-color="#e8720c" stop-opacity="0"/>
        </linearGradient>

        <!-- Filters -->
        <filter id="glow">
            <feGaussianBlur stdDeviation="3" result="blur"/>
            <feMerge><feMergeNode in="blur"/><feMergeNode in="SourceGraphic"/></feMerge>
        </filter>
        <filter id="softGlow">
            <feGaussianBlur stdDeviation="6" result="blur"/>
            <feMerge><feMergeNode in="blur"/><feMergeNode in="SourceGraphic"/></feMerge>
        </filter>
        <filter id="nodeGlow">
            <feDropShadow dx="0" dy="0" stdDeviation="4" flood-color="#1e90ff" flood-opacity="0.3"/>
        </filter>
        <filter id="orangeNodeGlow">
            <feDropShadow dx="0" dy="0" stdDeviation="4" flood-color="#e8720c" flood-opacity="0.4"/>
        </filter>

        <!-- Data particle -->
        <circle id="dataParticle" r="3" fill="#4db8ff" filter="url(#glow)"/>
        <circle id="dataParticleOrange" r="3" fill="#ff9a3c" filter="url(#glow)"/>

        <!-- Circuit node dot -->
        <circle id="circuitDot" r="2.5" fill="#1a3a5c"/>

        <!-- Service box template -->
        <clipPath id="roundedBox">
            <rect x="-60" y="-30" width="120" height="60" rx="8"/>
        </clipPath>
    </defs>

    <style>
        @import url('https://fonts.googleapis.com/css2?family=JetBrains+Mono:wght@400;700&amp;family=Inter:wght@300;400;600;700;800;900&amp;display=swap');

        text { font-family: 'Inter', 'Segoe UI', sans-serif; }
        .mono { font-family: 'JetBrains Mono', 'Courier New', monospace; }

        /* Typing animation */
        @keyframes typing {
        from { width: 0; }
        to { width: 282px; }
        }
        @keyframes blink {
        0%, 100% { opacity: 1; }
        50% { opacity: 0; }
        }
        .cursor {
        animation: blink 0.8s step-end infinite;
        }
        .typed-text {
        animation: typing 2.5s steps(18, end) forwards;
        overflow: hidden;
        white-space: nowrap;
        }

        /* Particle animations along paths */
        @keyframes moveParticle1 {
        0% { offset-distance: 0%; opacity: 0; }
        5% { opacity: 1; }
        90% { opacity: 1; }
        100% { offset-distance: 100%; opacity: 0; }
        }
        @keyframes moveParticle2 {
        0% { offset-distance: 0%; opacity: 0; }
        5% { opacity: 1; }
        90% { opacity: 1; }
        100% { offset-distance: 100%; opacity: 0; }
        }

        /* Pulse for circuit nodes */
        @keyframes pulse {
        0%, 100% { opacity: 0.3; }
        50% { opacity: 0.8; }
        }

        /* Subtle breathing for service boxes */
        @keyframes breathe {
        0%, 100% { opacity: 0.7; }
        50% { opacity: 1; }
        }

        .service-box { transition: filter 0.3s; }

        /* Flowing dash animation for circuit lines */
        @keyframes dashFlow {
        to { stroke-dashoffset: -40; }
        }
        .circuit-line-animated {
        stroke-dasharray: 8 12;
        animation: dashFlow 2s linear infinite;
        }
        .circuit-line-animated-reverse {
        stroke-dasharray: 8 12;
        animation: dashFlow 2s linear infinite reverse;
        }
        .circuit-line-slow {
        stroke-dasharray: 6 14;
        animation: dashFlow 3s linear infinite;
        }
        .circuit-line-fast {
        stroke-dasharray: 10 10;
        animation: dashFlow 1.2s linear infinite;
        }

        /* Particle on path */
        .particle-on-path {
        offset-rotate: 0deg;
        animation: moveParticle1 3s linear infinite;
        }
        .particle-on-path-2 {
        offset-rotate: 0deg;
        animation: moveParticle1 4s linear infinite 1.5s;
        }
        .particle-on-path-3 {
        offset-rotate: 0deg;
        animation: moveParticle1 2.5s linear infinite 0.8s;
        }
        .particle-on-path-orange {
        offset-rotate: 0deg;
        animation: moveParticle1 3.5s linear infinite;
        }
        .particle-on-path-orange-2 {
        offset-rotate: 0deg;
        animation: moveParticle1 3s linear infinite 1.2s;
        }
    </style>

    <!-- Background -->
    <rect width="1500" height="680" fill="url(#bgGlow)"/>

    <!-- Subtle grid pattern -->
    <g opacity="0.04">
        <pattern id="grid" width="30" height="30" patternUnits="userSpaceOnUse">
            <path d="M 30 0 L 0 0 0 30" fill="none" stroke="#4db8ff" stroke-width="0.5"/>
        </pattern>
        <rect width="1500" height="680" fill="url(#grid)"/>
    </g>

    <!-- Top decorative bar -->
    <rect x="0" y="0" width="1500" height="3" fill="#0d1520"/>
    <circle cx="30" cy="18" r="5" fill="#ff5f57" opacity="0.7"/>
    <circle cx="50" cy="18" r="5" fill="#ffbd2e" opacity="0.7"/>
    <circle cx="70" cy="18" r="5" fill="#28c840" opacity="0.7"/>

    <!-- "// SYSTEM OVERVIEW" label -->
    <text x="660" y="42" fill="#3a6b99" font-size="11" letter-spacing="3" class="mono">// SYSTEM OVERVIEW</text>

    <!-- ===================== CIRCUIT LINES (background traces) ===================== -->

    <!-- Left side: Clients to API Gateway traces -->
    <path id="pathClientWeb" d="M 130,170 L 200,170 L 200,250 L 240,250" fill="none" stroke="#152540" stroke-width="1.5"/>
    <path d="M 130,170 L 200,170 L 200,250 L 240,250" fill="none" stroke="#1e90ff" stroke-width="1.5" class="circuit-line-animated" opacity="0.5"/>

    <path id="pathClientMobile" d="M 130,280 L 175,280 L 175,295 L 240,295" fill="none" stroke="#152540" stroke-width="1.5"/>
    <path d="M 130,280 L 175,280 L 175,295 L 240,295" fill="none" stroke="#1e90ff" stroke-width="1.5" class="circuit-line-animated" opacity="0.5"/>

    <path id="pathClientThird" d="M 130,390 L 200,390 L 200,340 L 240,340" fill="none" stroke="#152540" stroke-width="1.5"/>
    <path d="M 130,390 L 200,390 L 200,340 L 240,340" fill="none" stroke="#1e90ff" stroke-width="1.5" class="circuit-line-animated" opacity="0.5"/>

    <!-- API Gateway to left services -->
    <path id="pathGwAuth" d="M 355,260 L 400,260 L 400,175 L 445,175" fill="none" stroke="#152540" stroke-width="1.5"/>
    <path d="M 355,260 L 400,260 L 400,175 L 445,175" fill="none" stroke="#1e90ff" stroke-width="1.5" class="circuit-line-fast" opacity="0.5"/>

    <path id="pathGwUser" d="M 355,295 L 445,295" fill="none" stroke="#152540" stroke-width="1.5"/>
    <path d="M 355,295 L 445,295" fill="none" stroke="#1e90ff" stroke-width="1.5" class="circuit-line-animated" opacity="0.6"/>

    <path id="pathGwNotif" d="M 355,330 L 400,330 L 400,415 L 445,415" fill="none" stroke="#152540" stroke-width="1.5"/>
    <path d="M 355,330 L 400,330 L 400,415 L 445,415" fill="none" stroke="#1e90ff" stroke-width="1.5" class="circuit-line-slow" opacity="0.5"/>

    <!-- Right services to RabbitMQ -->
    <path id="pathCardRmq" d="M 1065,175 L 1110,175 L 1110,260 L 1150,260" fill="none" stroke="#1a2a1a" stroke-width="1.5"/>
    <path d="M 1065,175 L 1110,175 L 1110,260 L 1150,260" fill="none" stroke="#e8720c" stroke-width="1.5" class="circuit-line-animated-reverse" opacity="0.5"/>

    <path id="pathAccRmq" d="M 1065,295 L 1150,295" fill="none" stroke="#1a2a1a" stroke-width="1.5"/>
    <path d="M 1065,295 L 1150,295" fill="none" stroke="#e8720c" stroke-width="1.5" class="circuit-line-fast" opacity="0.6"/>

    <path id="pathCreditRmq" d="M 1065,415 L 1110,415 L 1110,330 L 1150,330" fill="none" stroke="#1a2a1a" stroke-width="1.5"/>
    <path d="M 1065,415 L 1110,415 L 1110,330 L 1150,330" fill="none" stroke="#e8720c" stroke-width="1.5" class="circuit-line-slow" opacity="0.5"/>

    <!-- RabbitMQ to Data Layer -->
    <path id="pathRmqPg" d="M 1250,260 L 1290,260 L 1290,175 L 1340,175" fill="none" stroke="#1a2a1a" stroke-width="1.5"/>
    <path d="M 1250,260 L 1290,260 L 1290,175 L 1340,175" fill="none" stroke="#e8720c" stroke-width="1.5" class="circuit-line-animated" opacity="0.4"/>

    <path id="pathRmqRedis" d="M 1250,295 L 1340,295" fill="none" stroke="#1a2a1a" stroke-width="1.5"/>
    <path d="M 1250,295 L 1340,295" fill="none" stroke="#e8720c" stroke-width="1.5" class="circuit-line-fast" opacity="0.4"/>

    <path id="pathRmqS3" d="M 1250,330 L 1290,330 L 1290,405 L 1340,405" fill="none" stroke="#1a2a1a" stroke-width="1.5"/>
    <path d="M 1250,330 L 1290,330 L 1290,405 L 1340,405" fill="none" stroke="#e8720c" stroke-width="1.5" class="circuit-line-slow" opacity="0.4"/>

    <!-- Cross connections: left services to right services (through center) -->
    <path id="pathUserCard" d="M 535,280 C 650,280 850,175 945,175" fill="none" stroke="#152540" stroke-width="1"/>
    <path d="M 535,280 C 650,280 850,175 945,175" fill="none" stroke="#1e90ff" stroke-width="1" class="circuit-line-slow" opacity="0.25"/>

    <path id="pathAuthAcc" d="M 535,175 C 700,175 800,295 945,295" fill="none" stroke="#152540" stroke-width="1"/>
    <path d="M 535,175 C 700,175 800,295 945,295" fill="none" stroke="#1e90ff" stroke-width="1" class="circuit-line-slow" opacity="0.25"/>

    <path id="pathNotifCredit" d="M 535,415 C 700,415 800,415 945,415" fill="none" stroke="#152540" stroke-width="1"/>
    <path d="M 535,415 C 700,415 800,415 945,415" fill="none" stroke="#1e90ff" stroke-width="1" class="circuit-line-animated" opacity="0.2"/>

    <!-- ===================== DATA PARTICLES ON PATHS ===================== -->

    <!-- Client to Gateway particles -->
    <circle r="3" fill="#4db8ff" filter="url(#glow)" class="particle-on-path" style="offset-path: path('M 130,170 L 200,170 L 200,250 L 240,250')"/>
    <circle r="3" fill="#4db8ff" filter="url(#glow)" class="particle-on-path-2" style="offset-path: path('M 130,280 L 175,280 L 175,295 L 240,295')"/>
    <circle r="3" fill="#4db8ff" filter="url(#glow)" class="particle-on-path-3" style="offset-path: path('M 130,390 L 200,390 L 200,340 L 240,340')"/>

    <!-- Gateway to services particles -->
    <circle r="3" fill="#4db8ff" filter="url(#glow)" class="particle-on-path" style="offset-path: path('M 355,260 L 400,260 L 400,175 L 445,175')"/>
    <circle r="2.5" fill="#4db8ff" filter="url(#glow)" class="particle-on-path-2" style="offset-path: path('M 355,295 L 445,295')"/>
    <circle r="3" fill="#4db8ff" filter="url(#glow)" class="particle-on-path-3" style="offset-path: path('M 355,330 L 400,330 L 400,415 L 445,415')"/>

    <!-- Right services to RabbitMQ particles -->
    <circle r="3" fill="#ff9a3c" filter="url(#glow)" class="particle-on-path-orange" style="offset-path: path('M 1065,175 L 1110,175 L 1110,260 L 1150,260')"/>
    <circle r="3" fill="#ff9a3c" filter="url(#glow)" class="particle-on-path-orange-2" style="offset-path: path('M 1065,295 L 1150,295')"/>
    <circle r="3" fill="#ff9a3c" filter="url(#glow)" class="particle-on-path-orange" style="offset-path: path('M 1065,415 L 1110,415 L 1110,330 L 1150,330')"/>

    <!-- RabbitMQ to Data Layer particles -->
    <circle r="2.5" fill="#ff9a3c" filter="url(#glow)" class="particle-on-path-orange" style="offset-path: path('M 1250,260 L 1290,260 L 1290,175 L 1340,175')"/>
    <circle r="2.5" fill="#ff9a3c" filter="url(#glow)" class="particle-on-path-orange-2" style="offset-path: path('M 1250,295 L 1340,295')"/>
    <circle r="2.5" fill="#ff9a3c" filter="url(#glow)" class="particle-on-path-orange" style="offset-path: path('M 1250,330 L 1290,330 L 1290,405 L 1340,405')"/>

    <!-- Cross-connection particles -->
    <circle r="2" fill="#4db8ff" filter="url(#glow)" class="particle-on-path" style="offset-path: path('M 535,280 C 650,280 850,175 945,175')" opacity="0.7"/>
    <circle r="2" fill="#4db8ff" filter="url(#glow)" class="particle-on-path-2" style="offset-path: path('M 535,175 C 700,175 800,295 945,295')" opacity="0.7"/>
    <circle r="2" fill="#4db8ff" filter="url(#glow)" class="particle-on-path-3" style="offset-path: path('M 535,415 C 700,415 800,415 945,415')" opacity="0.7"/>

    <!-- ===================== CIRCUIT JUNCTION DOTS ===================== -->
    <g opacity="0.5">
        <circle cx="200" cy="170" r="2.5" fill="#1e90ff" opacity="0.6"><animate attributeName="opacity" values="0.3;0.8;0.3" dur="2s" repeatCount="indefinite"/></circle>
        <circle cx="200" cy="250" r="2.5" fill="#1e90ff" opacity="0.6"><animate attributeName="opacity" values="0.3;0.8;0.3" dur="2.5s" repeatCount="indefinite"/></circle>
        <circle cx="175" cy="295" r="2.5" fill="#1e90ff" opacity="0.6"><animate attributeName="opacity" values="0.3;0.8;0.3" dur="1.8s" repeatCount="indefinite"/></circle>
        <circle cx="200" cy="340" r="2.5" fill="#1e90ff" opacity="0.6"><animate attributeName="opacity" values="0.3;0.8;0.3" dur="2.2s" repeatCount="indefinite"/></circle>
        <circle cx="200" cy="390" r="2.5" fill="#1e90ff" opacity="0.6"><animate attributeName="opacity" values="0.3;0.8;0.3" dur="3s" repeatCount="indefinite"/></circle>
        <circle cx="400" cy="175" r="2.5" fill="#1e90ff" opacity="0.6"><animate attributeName="opacity" values="0.3;0.8;0.3" dur="2.3s" repeatCount="indefinite"/></circle>
        <circle cx="400" cy="415" r="2.5" fill="#1e90ff" opacity="0.6"><animate attributeName="opacity" values="0.3;0.8;0.3" dur="1.9s" repeatCount="indefinite"/></circle>
        <circle cx="1110" cy="260" r="2.5" fill="#e8720c" opacity="0.6"><animate attributeName="opacity" values="0.3;0.8;0.3" dur="2.1s" repeatCount="indefinite"/></circle>
        <circle cx="1110" cy="330" r="2.5" fill="#e8720c" opacity="0.6"><animate attributeName="opacity" values="0.3;0.8;0.3" dur="2.4s" repeatCount="indefinite"/></circle>
        <circle cx="1290" cy="175" r="2.5" fill="#e8720c" opacity="0.6"><animate attributeName="opacity" values="0.3;0.8;0.3" dur="2s" repeatCount="indefinite"/></circle>
        <circle cx="1290" cy="405" r="2.5" fill="#e8720c" opacity="0.6"><animate attributeName="opacity" values="0.3;0.8;0.3" dur="2.7s" repeatCount="indefinite"/></circle>
    </g>

    <!-- ===================== CLIENTS SECTION ===================== -->
    <text x="55" y="135" fill="#5a7a9a" font-size="11" letter-spacing="2" font-weight="600">CLIENTS</text>

    <!-- Web -->
    <g transform="translate(90, 170)">
        <circle r="22" fill="none" stroke="#1a3050" stroke-width="1.5"/>
        <circle cx="0" cy="-6" r="8" fill="none" stroke="#5a8ab5" stroke-width="1.2"/>
        <path d="M -10,6 Q 0,0 10,6" fill="none" stroke="#5a8ab5" stroke-width="1.2"/>
        <text y="42" text-anchor="middle" fill="#5a8ab5" font-size="11">Web</text>
    </g>

    <!-- Mobile -->
    <g transform="translate(90, 280)">
        <circle r="22" fill="none" stroke="#1a3050" stroke-width="1.5"/>
        <rect x="-7" y="-11" width="14" height="22" rx="2" fill="none" stroke="#5a8ab5" stroke-width="1.2"/>
        <line x1="-4" y1="8" x2="4" y2="8" stroke="#5a8ab5" stroke-width="1"/>
        <text y="42" text-anchor="middle" fill="#5a8ab5" font-size="11">Mobile</text>
    </g>

    <!-- Third Party -->
    <g transform="translate(90, 390)">
        <circle r="22" fill="none" stroke="#1a3050" stroke-width="1.5"/>
        <path d="M -8,-8 L 8,-8 L 8,8 L -8,8 Z" fill="none" stroke="#5a8ab5" stroke-width="1.2"/>
        <path d="M -4,-4 L 4,-4 L 4,4 L -4,4 Z" fill="none" stroke="#5a8ab5" stroke-width="0.8" opacity="0.6"/>
        <text y="42" text-anchor="middle" fill="#5a8ab5" font-size="10">Third Party</text>
    </g>

    <!-- ===================== API GATEWAY ===================== -->
    <g transform="translate(295, 295)" filter="url(#nodeGlow)">
        <rect x="-60" y="-55" width="120" height="110" rx="10" fill="#0d1a2a" stroke="#1e90ff" stroke-width="2"/>
        <rect x="-60" y="-55" width="120" height="110" rx="10" fill="none" stroke="#1e90ff" stroke-width="1" opacity="0.3">
            <animate attributeName="opacity" values="0.2;0.5;0.2" dur="3s" repeatCount="indefinite"/>
        </rect>
        <!-- Hexagon icon -->
        <polygon points="0,-25 15,-15 15,-1 0,9 -15,-1 -15,-15" fill="none" stroke="#1e90ff" stroke-width="1.5"/>
        <circle cx="0" cy="-8" r="4" fill="#1e90ff" opacity="0.6"/>
        <text y="30" text-anchor="middle" fill="#4db8ff" font-size="11" font-weight="700" letter-spacing="1">API GATEWAY</text>
    </g>

    <!-- ===================== LEFT SERVICES ===================== -->

    <!-- Auth Service -->
    <g transform="translate(490, 175)" filter="url(#nodeGlow)" class="service-box">
        <rect x="-50" y="-28" width="100" height="56" rx="8" fill="#0f1e30" stroke="#1a3a5c" stroke-width="1.5"/>
        <!-- Lock icon -->
        <rect x="-6" y="-12" width="12" height="10" rx="2" fill="none" stroke="#6aaddf" stroke-width="1.2"/>
        <path d="M -3,-12 L -3,-16 Q 0,-20 3,-16 L 3,-12" fill="none" stroke="#6aaddf" stroke-width="1.2"/>
        <text y="17" text-anchor="middle" fill="#8ec5e8" font-size="9" font-weight="600" letter-spacing="0.5">AUTH</text>
        <text y="26" text-anchor="middle" fill="#5a8ab5" font-size="7" letter-spacing="0.5">SERVICE</text>
    </g>

    <!-- User Service -->
    <g transform="translate(490, 295)" filter="url(#nodeGlow)" class="service-box">
        <rect x="-50" y="-28" width="100" height="56" rx="8" fill="#0f1e30" stroke="#1a3a5c" stroke-width="1.5"/>
        <!-- User icon -->
        <circle cx="0" cy="-14" r="5" fill="none" stroke="#6aaddf" stroke-width="1.2"/>
        <path d="M -8,-4 Q 0,-9 8,-4" fill="none" stroke="#6aaddf" stroke-width="1.2"/>
        <text y="17" text-anchor="middle" fill="#8ec5e8" font-size="9" font-weight="600" letter-spacing="0.5">USER</text>
        <text y="26" text-anchor="middle" fill="#5a8ab5" font-size="7" letter-spacing="0.5">SERVICE</text>
    </g>

    <!-- Notification Service -->
    <g transform="translate(490, 415)" filter="url(#nodeGlow)" class="service-box">
        <rect x="-50" y="-28" width="100" height="56" rx="8" fill="#0f1e30" stroke="#1a3a5c" stroke-width="1.5"/>
        <!-- Mail icon -->
        <rect x="-9" y="-14" width="18" height="13" rx="2" fill="none" stroke="#6aaddf" stroke-width="1.2"/>
        <polyline points="-9,-14 0,-6 9,-14" fill="none" stroke="#6aaddf" stroke-width="1"/>
        <text y="17" text-anchor="middle" fill="#8ec5e8" font-size="9" font-weight="600" letter-spacing="0.5">NOTIFICATION</text>
        <text y="26" text-anchor="middle" fill="#5a8ab5" font-size="7" letter-spacing="0.5">SERVICE</text>
    </g>

    <!-- ===================== CENTER: Name & Title ===================== -->

    <!-- Code icon </> -->
    <g transform="translate(750, 95)">
        <polygon points="0,-35 30,-17.5 30,17.5 0,35 -30,17.5 -30,-17.5" fill="none" stroke="#1e90ff" stroke-width="2.5" opacity="0.8"/>
        <text y="6" text-anchor="middle" fill="#4db8ff" font-size="24" font-weight="700" class="mono">&lt;/&gt;</text>
    </g>

    <!-- Name -->
    <text x="750" y="200" text-anchor="middle" fill="#e8ecf1" font-size="72" font-weight="900" letter-spacing="-1">Douglas</text>
    <text x="750" y="280" text-anchor="middle" fill="#1e90ff" font-size="72" font-weight="900" letter-spacing="-1">Menezes</text>

    <!-- Typing effect for "Backend Developer." -->
    <g transform="translate(750, 330)">
        <clipPath id="typeClip">
            <rect x="-141" y="-22" width="0" height="30">
                <animate attributeName="width" from="0" to="282" dur="2.5s" fill="freeze" calcMode="discrete" keyTimes="0;0.0556;0.1111;0.1667;0.2222;0.2778;0.3333;0.3889;0.4444;0.5;0.5556;0.6111;0.6667;0.7222;0.7778;0.8333;0.8889;0.9444;1" values="0;15.7;31.3;47;62.7;78.3;94;109.7;125.3;141;156.7;172.3;188;203.7;219.3;235;250.7;266.3;282"/>
            </rect>
        </clipPath>
        <text text-anchor="middle" fill="#7a99b5" font-size="26" font-weight="600" letter-spacing="2" clip-path="url(#typeClip)">Backend Developer.</text>
        <!-- Blinking cursor -->
        <rect x="141" y="-20" width="2.5" height="28" fill="#1e90ff">
            <animate attributeName="opacity" values="1;1;0;0" dur="1s" repeatCount="indefinite" keyTimes="0;0.5;0.5001;1"/>
            <animate attributeName="x" from="-141" to="141" dur="2.5s" fill="freeze" calcMode="discrete" keyTimes="0;0.0556;0.1111;0.1667;0.2222;0.2778;0.3333;0.3889;0.4444;0.5;0.5556;0.6111;0.6667;0.7222;0.7778;0.8333;0.8889;0.9444;1" values="-141;-125.3;-109.7;-94;-78.3;-62.7;-47;-31.3;-15.7;0;15.7;31.3;47;62.7;78.3;94;109.7;125.3;141"/>
        </rect>
    </g>

    <!-- Tech tags -->
    <text x="750" y="400" text-anchor="middle" fill="#4a7090" font-size="15" letter-spacing="1">
        <tspan fill="#6a9abf">Java</tspan>
        <tspan fill="#2a4a65" dx="8">•</tspan>
        <tspan fill="#6a9abf" dx="8">Spring Boot</tspan>
        <tspan fill="#2a4a65" dx="8">•</tspan>
        <tspan fill="#6a9abf" dx="8">Microservices</tspan>
    </text>
    <text x="750" y="425" text-anchor="middle" fill="#4a7090" font-size="15" letter-spacing="1">
        <tspan fill="#6a9abf">Cloud</tspan>
        <tspan fill="#2a4a65" dx="8">•</tspan>
        <tspan fill="#6a9abf" dx="8">Architecture</tspan>
        <tspan fill="#2a4a65" dx="8">•</tspan>
        <tspan fill="#6a9abf" dx="8">Clean Code</tspan>
    </text>

    <!-- ===================== RIGHT SERVICES ===================== -->

    <!-- Card Service -->
    <g transform="translate(1010, 175)" filter="url(#nodeGlow)" class="service-box">
        <rect x="-50" y="-28" width="100" height="56" rx="8" fill="#0f1e30" stroke="#1a3a5c" stroke-width="1.5"/>
        <rect x="-9" y="-15" width="18" height="13" rx="2" fill="none" stroke="#6aaddf" stroke-width="1.2"/>
        <line x1="-6" y1="-8" x2="6" y2="-8" stroke="#6aaddf" stroke-width="0.8"/>
        <text y="17" text-anchor="middle" fill="#8ec5e8" font-size="9" font-weight="600" letter-spacing="0.5">CARD</text>
        <text y="26" text-anchor="middle" fill="#5a8ab5" font-size="7" letter-spacing="0.5">SERVICE</text>
    </g>

    <!-- Account Service -->
    <g transform="translate(1010, 295)" filter="url(#nodeGlow)" class="service-box">
        <rect x="-50" y="-28" width="100" height="56" rx="8" fill="#0f1e30" stroke="#1a3a5c" stroke-width="1.5"/>
        <circle cx="0" cy="-10" r="6" fill="none" stroke="#6aaddf" stroke-width="1.2"/>
        <path d="M 0,-7 L 0,-2 M -3,-5 L 3,-5" fill="none" stroke="#6aaddf" stroke-width="1"/>
        <text y="17" text-anchor="middle" fill="#8ec5e8" font-size="9" font-weight="600" letter-spacing="0.5">ACCOUNT</text>
        <text y="26" text-anchor="middle" fill="#5a8ab5" font-size="7" letter-spacing="0.5">SERVICE</text>
    </g>

    <!-- Credit Service -->
    <g transform="translate(1010, 415)" filter="url(#nodeGlow)" class="service-box">
        <rect x="-50" y="-28" width="100" height="56" rx="8" fill="#0f1e30" stroke="#1a3a5c" stroke-width="1.5"/>
        <path d="M -8,-14 L 8,-14 L 4,-2 L -4,-2 Z" fill="none" stroke="#6aaddf" stroke-width="1.2"/>
        <line x1="0" y1="-2" x2="0" y2="2" stroke="#6aaddf" stroke-width="1"/>
        <text y="17" text-anchor="middle" fill="#8ec5e8" font-size="9" font-weight="600" letter-spacing="0.5">CREDIT</text>
        <text y="26" text-anchor="middle" fill="#5a8ab5" font-size="7" letter-spacing="0.5">SERVICE</text>
    </g>

    <!-- ===================== RABBITMQ ===================== -->
    <g transform="translate(1200, 295)" filter="url(#orangeNodeGlow)">
        <rect x="-55" y="-55" width="110" height="110" rx="10" fill="#1a1510" stroke="#e8720c" stroke-width="2"/>
        <rect x="-55" y="-55" width="110" height="110" rx="10" fill="none" stroke="#e8720c" stroke-width="1" opacity="0.3">
            <animate attributeName="opacity" values="0.2;0.5;0.2" dur="3s" repeatCount="indefinite"/>
        </rect>
        <!-- Rabbit icon (simplified) -->
        <ellipse cx="-5" cy="-15" rx="4" ry="12" fill="none" stroke="#e8720c" stroke-width="1.3" transform="rotate(-10,-5,-15)"/>
        <ellipse cx="7" cy="-15" rx="4" ry="12" fill="none" stroke="#e8720c" stroke-width="1.3" transform="rotate(10,7,-15)"/>
        <circle cx="1" cy="-2" r="10" fill="none" stroke="#e8720c" stroke-width="1.5"/>
        <circle cx="-3" cy="-4" r="1.5" fill="#e8720c"/>
        <circle cx="5" cy="-4" r="1.5" fill="#e8720c"/>
        <text y="30" text-anchor="middle" fill="#e8720c" font-size="11" font-weight="700" letter-spacing="1">RABBITMQ</text>
    </g>

    <!-- ===================== DATA LAYER ===================== -->
    <text x="1360" y="135" fill="#5a7a9a" font-size="11" letter-spacing="2" font-weight="600">DATA LAYER</text>

    <!-- PostgreSQL -->
    <g transform="translate(1400, 175)">
        <ellipse rx="18" ry="8" fill="none" stroke="#5a8ab5" stroke-width="1.2"/>
        <path d="M -18,0 L -18,12 Q 0,22 18,12 L 18,0" fill="none" stroke="#5a8ab5" stroke-width="1.2"/>
        <text x="0" y="-18" text-anchor="middle" fill="#5a8ab5" font-size="10">PostgreSQL</text>
    </g>

    <!-- Redis -->
    <g transform="translate(1400, 295)">
        <path d="M -15,0 L 0,-10 L 15,0 L 0,10 Z" fill="none" stroke="#5a8ab5" stroke-width="1.2"/>
        <path d="M -10,0 L 0,-6 L 10,0 L 0,6 Z" fill="none" stroke="#5a8ab5" stroke-width="0.8" opacity="0.5"/>
        <text x="0" y="-18" text-anchor="middle" fill="#5a8ab5" font-size="10">Redis</text>
    </g>

    <!-- S3 / Storage -->
    <g transform="translate(1400, 405)">
        <ellipse rx="14" ry="6" cy="-6" fill="none" stroke="#5a8ab5" stroke-width="1.2"/>
        <path d="M -14,-6 L -14,6 Q 0,14 14,6 L 14,-6" fill="none" stroke="#5a8ab5" stroke-width="1.2"/>
        <line x1="-12" y1="0" x2="12" y2="0" stroke="#5a8ab5" stroke-width="0.8" opacity="0.5"/>
        <text x="0" y="-20" text-anchor="middle" fill="#5a8ab5" font-size="10">S3 / Storage</text>
    </g>

    <!-- ===================== ENCLOSING BORDERS ===================== -->

    <!-- Clients box -->
    <rect x="45" y="120" width="100" height="320" rx="6" fill="none" stroke="#152540" stroke-width="1" stroke-dasharray="4 4" opacity="0.5"/>

    <!-- Data layer box -->
    <rect x="1340" y="120" width="130" height="320" rx="6" fill="none" stroke="#152540" stroke-width="1" stroke-dasharray="4 4" opacity="0.5"/>

    <!-- ===================== BOTTOM TOOLBAR ===================== -->
    <g transform="translate(0, 510)">
        <!-- Background bar -->
        <path d="M 40,30 L 40,0 L 100,0 L 120,30 L 750,30 L 750,0 L 1400,0 L 1460,30 L 1460,90 L 40,90 Z" fill="none" stroke="#152540" stroke-width="1.5" opacity="0.6"/>

        <!-- DevOps tools -->
        <g transform="translate(160, 60)">
            <!-- Docker icon -->
            <rect x="-10" y="-8" width="6" height="5" rx="1" fill="none" stroke="#4db8ff" stroke-width="1"/>
            <rect x="-2" y="-8" width="6" height="5" rx="1" fill="none" stroke="#4db8ff" stroke-width="1"/>
            <rect x="6" y="-8" width="6" height="5" rx="1" fill="none" stroke="#4db8ff" stroke-width="1"/>
            <rect x="-6" y="-14" width="6" height="5" rx="1" fill="none" stroke="#4db8ff" stroke-width="1"/>
            <rect x="2" y="-14" width="6" height="5" rx="1" fill="none" stroke="#4db8ff" stroke-width="1"/>
            <rect x="-2" y="-20" width="6" height="5" rx="1" fill="none" stroke="#4db8ff" stroke-width="1"/>
            <text x="30" y="-8" fill="#6a9abf" font-size="13" font-weight="600">Docker</text>
        </g>

        <line x1="280" y1="42" x2="280" y2="78" stroke="#1a3050" stroke-width="1"/>

        <g transform="translate(330, 60)">
            <!-- Git icon -->
            <circle cx="0" cy="-10" r="8" fill="none" stroke="#4db8ff" stroke-width="1.2"/>
            <path d="M -3,-13 L 3,-7" stroke="#4db8ff" stroke-width="1.2"/>
            <text x="20" y="-6" fill="#6a9abf" font-size="13" font-weight="600">Git</text>
        </g>

        <line x1="410" y1="42" x2="410" y2="78" stroke="#1a3050" stroke-width="1"/>

        <g transform="translate(480, 60)">
            <circle cx="0" cy="-10" r="9" fill="none" stroke="#4db8ff" stroke-width="1.2"/>
            <circle cx="0" cy="-10" r="3" fill="#4db8ff" opacity="0.4"/>
            <text x="20" y="-6" fill="#6a9abf" font-size="13" font-weight="600">GitHub Actions</text>
        </g>

        <line x1="680" y1="42" x2="680" y2="78" stroke="#1a3050" stroke-width="1"/>

        <!-- OBSERVABILITY label -->
        <text x="750" y="30" text-anchor="middle" fill="#3a6b99" font-size="10" letter-spacing="2" class="mono">OBSERVABILITY</text>

        <!-- Observability tools -->
        <g transform="translate(830, 60)">
            <circle cx="0" cy="-10" r="8" fill="none" stroke="#e8720c" stroke-width="1.2"/>
            <path d="M -4,-10 L 0,-16 L 4,-10" fill="none" stroke="#e8720c" stroke-width="1"/>
            <text x="18" y="-6" fill="#c07030" font-size="13" font-weight="600">Prometheus</text>
        </g>

        <line x1="1000" y1="42" x2="1000" y2="78" stroke="#1a3050" stroke-width="1"/>

        <g transform="translate(1070, 60)">
            <rect x="-8" y="-18" width="16" height="16" rx="3" fill="none" stroke="#e8720c" stroke-width="1.2"/>
            <line x1="-4" y1="-12" x2="4" y2="-12" stroke="#e8720c" stroke-width="0.8"/>
            <line x1="-4" y1="-8" x2="4" y2="-8" stroke="#e8720c" stroke-width="0.8"/>
            <text x="18" y="-6" fill="#c07030" font-size="13" font-weight="600">Grafana</text>
        </g>

        <line x1="1200" y1="42" x2="1200" y2="78" stroke="#1a3050" stroke-width="1"/>

        <g transform="translate(1270, 60)">
            <path d="M -6,-16 L -6,-4 M -2,-16 L -2,-4 M 2,-16 L 2,-4 M 6,-16 L 6,-4" stroke="#e8720c" stroke-width="1.5"/>
            <line x1="-8" y1="-4" x2="8" y2="-4" stroke="#e8720c" stroke-width="1"/>
            <text x="18" y="-6" fill="#c07030" font-size="13" font-weight="600">Loki</text>
        </g>
    </g>

    <!-- ===================== DECORATIVE CORNER CIRCUITS ===================== -->
    <!-- Top-left corner circuit traces -->
    <g opacity="0.15">
        <path d="M 0,60 L 30,60 L 30,80 L 60,80" fill="none" stroke="#1e90ff" stroke-width="1"/>
        <path d="M 0,90 L 20,90 L 20,110 L 45,110" fill="none" stroke="#1e90ff" stroke-width="1"/>
        <circle cx="60" cy="80" r="2" fill="#1e90ff"/>
        <circle cx="45" cy="110" r="2" fill="#1e90ff"/>
    </g>
    <!-- Top-right corner -->
    <g opacity="0.15">
        <path d="M 1500,60 L 1470,60 L 1470,80 L 1440,80" fill="none" stroke="#1e90ff" stroke-width="1"/>
        <path d="M 1500,90 L 1480,90 L 1480,110 L 1455,110" fill="none" stroke="#1e90ff" stroke-width="1"/>
        <circle cx="1440" cy="80" r="2" fill="#1e90ff"/>
        <circle cx="1455" cy="110" r="2" fill="#1e90ff"/>
    </g>
    <!-- Bottom-left -->
    <g opacity="0.15">
        <path d="M 0,500 L 25,500 L 25,485 L 50,485" fill="none" stroke="#1e90ff" stroke-width="1"/>
        <circle cx="50" cy="485" r="2" fill="#1e90ff"/>
    </g>
    <!-- Bottom-right -->
    <g opacity="0.15">
        <path d="M 1500,500 L 1475,500 L 1475,485 L 1450,485" fill="none" stroke="#1e90ff" stroke-width="1"/>
        <circle cx="1450" cy="485" r="2" fill="#1e90ff"/>
    </g>

</svg>